<svg width="213" height="213" viewBox="0 0 213 213" xmlns="http://www.w3.org/2000/svg"><path d="M84.6 0h43.8c29.4 0 40 3 50.8 8.8a60 60 0 0 1 25 25c5.7 10.7 8.8 21.4 8.8 50.8v43.8c0 29.4-3 40-8.8 50.8a60 60 0 0 1-25 25c-10.7 5.7-21.4 8.8-50.8 8.8H84.6c-29.4 0-40-3-50.8-8.8a60 60 0 0 1-25-25C3.1 168.5 0 157.8 0 128.4V84.6c0-29.4 3-40 8.8-50.8a60 60 0 0 1 25-25C44.5 3.1 55.2 0 84.6 0zm65.6 41H62.8C50.8 41 41 50.8 41 62.8v87.4c0 12 9.8 21.8 21.8 21.8h87.4c12 0 21.8-9.8 21.8-21.8V62.8c0-12-9.8-21.8-21.8-21.8zM148 141.1a7 7 0 0 1-7 6.9H72a7 7 0 0 1-7-6.9V71.9a7 7 0 0 1 7-6.9h69a7 7 0 0 1 7 7V141zM125 121V93a4 4 0 0 0-4-4H93a4 4 0 0 0-4 4v28a4 4 0 0 0 4 4h28a4 4 0 0 0 4-4z" fill="#436FED" fill-rule="evenodd"/></svg>
